<?xml version="1.0" encoding="UTF-8" standalone="no"?>
<svg
   xmlns:dc="http://purl.org/dc/elements/1.1/"
   xmlns:cc="http://creativecommons.org/ns#"
   xmlns:rdf="http://www.w3.org/1999/02/22-rdf-syntax-ns#"
   xmlns:svg="http://www.w3.org/2000/svg"
   xmlns="http://www.w3.org/2000/svg"
   viewBox="0 0 793.70667 1122.52"
   height="1122.52"
   width="793.70667"
   xml:space="preserve"
   id="svg2"
   version="1.1"><metadata
     id="metadata8"><rdf:RDF><cc:Work
         rdf:about=""><dc:format>image/svg+xml</dc:format><dc:type
           rdf:resource="http://purl.org/dc/dcmitype/StillImage" /></cc:Work></rdf:RDF></metadata><defs
     id="defs6"><clipPath
       id="clipPath20"
       clipPathUnits="userSpaceOnUse"><path
         id="path18"
         d="M 0,0 H 595.28 V 841.89 H 0 Z" /></clipPath><clipPath
       id="clipPath30"
       clipPathUnits="userSpaceOnUse"><path
         id="path28"
         d="m 210.8645,560.8144 41.8481,15.3349 26.7811,-73.0842 -41.8481,-15.3349 z" /></clipPath><clipPath
       id="clipPath36"
       clipPathUnits="userSpaceOnUse"><path
         id="path34"
         d="M 0,0 H 595.28 V 841.89 H 0 Z" /></clipPath><clipPath
       id="clipPath50"
       clipPathUnits="userSpaceOnUse"><path
         id="path48"
         d="m 383.8949,564.3543 -45.0337,12.2541 -20.4056,-74.9905 45.0337,-12.2541 z" /></clipPath><clipPath
       id="clipPath56"
       clipPathUnits="userSpaceOnUse"><path
         id="path54"
         d="M 0,0 H 595.28 V 841.89 H 0 Z" /></clipPath><clipPath
       id="clipPath70"
       clipPathUnits="userSpaceOnUse"><path
         id="path68"
         d="m 229.9422,394.2998 h 141 v 141 h -141 z" /></clipPath><clipPath
       id="clipPath84"
       clipPathUnits="userSpaceOnUse"><path
         id="path82"
         d="m 271.1922,454.9499 h 37.71323 v 38.74992 H 271.1922 Z" /></clipPath><clipPath
       id="clipPath98"
       clipPathUnits="userSpaceOnUse"><path
         id="path96"
         d="m 321.9422,454.8999 h 37.71323 v 38.74992 H 321.9422 Z" /></clipPath><clipPath
       id="clipPath112"
       clipPathUnits="userSpaceOnUse"><path
         id="path110"
         d="m 293.6922,417.6998 h 52.5 v 54 h -52.5 z" /></clipPath><clipPath
       id="clipPath126"
       clipPathUnits="userSpaceOnUse"><path
         id="path124"
         d="m 308.3922,440.1998 h 28.5 v 29.25008 h -28.5 z" /></clipPath></defs><g
     transform="matrix(1.3333333,0,0,-1.3333333,0,1122.52)"
     id="g10"><g
       id="g12" /><g
       id="g14"><g
         clip-path="url(#clipPath20)"
         id="g16"><path
           id="path22"
           style="fill:#ffffff;fill-opacity:1;fill-rule:nonzero;stroke:none"
           d="M 0,841.89 H 596 V -0.1099854 H 0 Z" /></g></g><g
       id="g24"><g
         clip-path="url(#clipPath30)"
         id="g26"><g
           clip-path="url(#clipPath36)"
           id="g32"><path
             id="path38"
             style="fill:#4472c4;fill-opacity:1;fill-rule:nonzero;stroke:none"
             d="m 232.7693,565.8056 44.65,-61.9031 -38.7315,-14.1928 z" /><g
             transform="matrix(0.9389446,0.3440684,0.3440684,-0.9389446,210.4076,557.6114)"
             id="g40"><path
               id="path42"
               style="fill:none;stroke:#32538f;stroke-width:1;stroke-linecap:butt;stroke-linejoin:miter;stroke-miterlimit:8;stroke-dasharray:none;stroke-opacity:1"
               d="m 23.8157,0 20.625,73.48622 H 3.190697 Z" /></g></g></g></g><g
       id="g44"><g
         clip-path="url(#clipPath50)"
         id="g46"><g
           clip-path="url(#clipPath56)"
           id="g52"><path
             id="path58"
             style="fill:#4472c4;fill-opacity:1;fill-rule:nonzero;stroke:none"
             d="m 360.6515,567.8113 -40.1918,-65.1842 41.8132,-11.3777 z" /><g
             transform="rotate(164.77786,154.89817,306.33012)"
             id="g60"><path
               id="path62"
               style="fill:none;stroke:#32538f;stroke-width:1;stroke-linecap:butt;stroke-linejoin:miter;stroke-miterlimit:8;stroke-dasharray:none;stroke-opacity:1"
               d="M 25.01864,0 46.68541,73.45 H 3.351861 Z" /></g></g></g></g><g
       id="g64"><g
         clip-path="url(#clipPath70)"
         id="g66"><path
           id="path72"
           style="fill:#4472c4;fill-opacity:1;fill-rule:nonzero;stroke:none"
           d="m 231.4422,464.7998 c 0,38.1077 30.8923,69 69,69 38.1076,0 69,-30.8923 69,-69 0,-38.1076 -30.8924,-69 -69,-69 -38.1077,0 -69,30.8924 -69,69 z" /><g
           transform="matrix(1,0,0,-1,231.4422,533.7998)"
           id="g74"><path
             id="path76"
             style="fill:none;stroke:#32538f;stroke-width:1;stroke-linecap:butt;stroke-linejoin:miter;stroke-miterlimit:8;stroke-dasharray:none;stroke-opacity:1"
             d="M 0,69 C 0,30.89235 30.89235,0 69,0 c 38.1077,0 69,30.89235 69,69 0,38.1077 -30.8923,69 -69,69 C 30.89235,138 0,107.1077 0,69 Z" /></g></g></g><g
       id="g78"><g
         clip-path="url(#clipPath84)"
         id="g80"><path
           id="path86"
           style="fill:#5b9bd5;fill-opacity:1;fill-rule:nonzero;stroke:none"
           d="m 272.9422,474.3249 c 0,9.734 7.6588,17.6249 17.1066,17.6249 9.4477,0 17.1066,-7.8909 17.1066,-17.6249 0,-9.734 -7.6589,-17.625 -17.1066,-17.625 -9.4478,0 -17.1066,7.891 -17.1066,17.625 z" /><g
           transform="matrix(1,0,0,-1,272.9422,491.9498)"
           id="g88"><path
             id="path90"
             style="fill:none;stroke:#ffffff;stroke-width:1.5;stroke-linecap:butt;stroke-linejoin:miter;stroke-miterlimit:8;stroke-dasharray:none;stroke-opacity:1"
             d="M 0,17.62496 C 0,7.890963 7.658892,0 17.10662,0 c 9.44772,0 17.10661,7.890963 17.10661,17.62496 0,9.734 -7.65889,17.62496 -17.10661,17.62496 C 7.658892,35.24992 0,27.35896 0,17.62496 Z" /></g></g></g><g
       id="g92"><g
         clip-path="url(#clipPath98)"
         id="g94"><path
           id="path100"
           style="fill:#5b9bd5;fill-opacity:1;fill-rule:nonzero;stroke:none"
           d="m 323.6922,474.2749 c 0,9.734 7.6588,17.625 17.1066,17.625 9.4477,0 17.1066,-7.891 17.1066,-17.625 0,-9.734 -7.6589,-17.625 -17.1066,-17.625 -9.4478,0 -17.1066,7.891 -17.1066,17.625 z" /><g
           transform="matrix(1,0,0,-1,323.6922,491.8999)"
           id="g102"><path
             id="path104"
             style="fill:none;stroke:#ffffff;stroke-width:1.5;stroke-linecap:butt;stroke-linejoin:miter;stroke-miterlimit:8;stroke-dasharray:none;stroke-opacity:1"
             d="M 0,17.62496 C 0,7.890963 7.658892,0 17.10662,0 c 9.44772,0 17.10661,7.890963 17.10661,17.62496 0,9.734 -7.65889,17.62496 -17.10661,17.62496 C 7.658892,35.24992 0,27.35896 0,17.62496 Z" /></g></g></g><g
       id="g106"><g
         clip-path="url(#clipPath112)"
         id="g108"><path
           id="path114"
           style="fill:#4472c4;fill-opacity:1;fill-rule:nonzero;stroke:none"
           d="m 295.1922,444.6998 c 0,14.0833 11.0809,25.5 24.75,25.5 13.669,0 24.75,-11.4167 24.75,-25.5 0,-14.0832 -11.081,-25.5 -24.75,-25.5 -13.6691,0 -24.75,11.4168 -24.75,25.5 z" /><g
           transform="matrix(1,0,0,-1,295.1922,470.1998)"
           id="g116"><path
             id="path118"
             style="fill:none;stroke:#32538f;stroke-width:1;stroke-linecap:butt;stroke-linejoin:miter;stroke-miterlimit:8;stroke-dasharray:none;stroke-opacity:1"
             d="M 0,25.5 C 0,11.41674 11.08095,0 24.75,0 38.41905,0 49.5,11.41674 49.5,25.5 49.5,39.58326 38.41905,51 24.75,51 11.08095,51 0,39.58326 0,25.5 Z" /></g></g></g><g
       id="g120"><g
         clip-path="url(#clipPath126)"
         id="g122"><path
           id="path128"
           style="fill:#a5a5a5;fill-opacity:1;fill-rule:nonzero;stroke:none"
           d="m 309.8922,454.8248 c 0,7.2488 5.7083,13.125 12.75,13.125 7.0416,0 12.75,-5.8762 12.75,-13.125 0,-7.2488 -5.7084,-13.125 -12.75,-13.125 -7.0417,0 -12.75,5.8762 -12.75,13.125 z" /><g
           transform="matrix(1,0,0,-1,309.8922,467.9498)"
           id="g130"><path
             id="path132"
             style="fill:none;stroke:#787878;stroke-width:1;stroke-linecap:butt;stroke-linejoin:miter;stroke-miterlimit:8;stroke-dasharray:none;stroke-opacity:1"
             d="M 0,13.12504 C 0,5.87628 5.70837,0 12.75,0 19.79163,0 25.5,5.87628 25.5,13.12504 25.5,20.3738 19.79163,26.25008 12.75,26.25008 5.70837,26.25008 0,20.3738 0,13.12504 Z" /></g></g></g></g></svg>